<svg width="50" height="50" viewBox="0 0 50 50" fill="none" xmlns="http://www.w3.org/2000/svg">
<rect width="50" height="50" rx="15" fill="#0088CC"/>
<path d="M7.39816 13.8894H13.8738C15.7502 13.8894 20.5989 24.5265 21.5 24.5265C22.4011 24.5265 22.1764 17.1585 22.4768 15.2516C22.7772 13.3446 20.75 14.2765 20.75 14.2765C20.75 14.2765 20.5939 13.6905 22.25 13.2765C23.9061 12.8624 28.0616 12.8882 29 13.5265C30.2015 14.3437 27.8837 24.5265 29.0852 24.5265C30.2867 24.5265 33.2905 13.8894 35.3932 13.8894H43.2031C45.6061 13.8894 37.4959 23.152 37.4959 25.0591C37.4959 26.9661 45.6061 36.7736 43.2031 36.7736H35.3932C33.2905 36.7736 30.1238 28.7764 29.0852 28.7765C28.0466 28.7765 28.9346 35.2765 27.8738 36.7736C26.8129 38.2706 23.9225 38.5265 18.8982 34.2765C13.8738 30.0265 5.01847 13.8894 7.39816 13.8894Z" fill="white"/>
</svg>
