<svg width="18" height="18" viewBox="0 0 18 18" fill="none" xmlns="http://www.w3.org/2000/svg">
<path d="M11.5 12C9.74449 12.4705 4.56144 6.9495 5 6C5.43856 5.05051 6.5 6 6.5 5V2C6.5 1 5.44031 0.997136 4.12424 1.00031C2.80817 1.00348 1.93066 1.47816 1.49168 2.42446C1.0527 3.37075 0.64989 4.32289 1.49145 6.69619C2.333 9.0695 8.5 15 10 16C11.5 17 13.5933 17.1542 14.5 16.5C15.8859 15.5 17 13.5 16.5 13C15.7094 12.2094 14.5 11.5 13.5 11C12.3947 10.4474 13.2555 11.5295 11.5 12Z" fill="#9E9E9E" stroke="#9E9E9E"/>
</svg>
