<svg width="50" height="50" viewBox="0 0 50 50" fill="none" xmlns="http://www.w3.org/2000/svg">
<rect width="50" height="50" rx="15" fill="#0088CC"/>
<path d="M21.7054 32.9133C21.9833 32.1097 25.8746 25.6812 25.8746 25.6812C25.8746 25.6812 29.2099 30.5026 28.0981 31.0383C26.9864 31.574 21.4274 33.7169 21.7054 32.9133Z" fill="#92C0EA"/>
<path d="M21.9828 32.9136C20.9822 34.5208 21.9828 24.8779 21.9828 24.8779C25.0402 23.0029 28.9315 20.5922 30.8771 20.0565C32.8227 19.5207 25.874 25.6814 25.874 25.6814C25.874 25.6814 22.9834 31.3065 21.9828 32.9136Z" fill="#BFDFF1"/>
<path d="M37.8259 14.9669C38.9377 10.6813 15.8682 21.9696 13.3667 23.0028C10.8651 24.0359 21.983 24.8776 21.983 24.8776C21.983 24.8776 30.7752 19.5208 31.1552 20.0564C31.5351 20.5919 25.8742 25.6812 25.8742 25.6812C25.8742 25.6812 30.7383 37.7348 31.1552 36.3957C31.572 35.0565 36.7141 19.2526 37.8259 14.9669Z" fill="white"/>
</svg>
