<svg width="78" height="50" viewBox="0 0 78 50" fill="none" xmlns="http://www.w3.org/2000/svg">
<rect width="77.6119" height="50" rx="12" fill="#646464"/>
<path d="M31.014 40.1338V38.1571C31.0256 37.9913 31.0016 37.825 30.9438 37.6692C30.886 37.5133 30.7956 37.3716 30.6787 37.2535C30.5618 37.1353 30.421 37.0435 30.2658 36.984C30.1106 36.9245 29.9445 36.8988 29.7786 36.9086C29.5609 36.8943 29.3433 36.9387 29.1486 37.0372C28.9539 37.1357 28.7892 37.2847 28.6717 37.4686C28.5646 37.2902 28.4114 37.1441 28.2281 37.0455C28.0449 36.9469 27.8385 36.8996 27.6306 36.9086C27.4495 36.8994 27.269 36.9377 27.1072 37.0198C26.9454 37.1019 26.8079 37.2248 26.7082 37.3764V36.9876H26.0229V40.1338H26.7148V38.3911C26.6995 38.2832 26.7083 38.1734 26.7406 38.0694C26.773 37.9654 26.828 37.8699 26.9018 37.7899C26.9756 37.7098 27.0662 37.6471 27.1672 37.6063C27.2682 37.5656 27.377 37.5478 27.4857 37.5543C27.9403 37.5543 28.1709 37.8508 28.1709 38.3845V40.1338H28.8628V38.3911C28.8486 38.2835 28.8583 38.1741 28.8911 38.0706C28.9239 37.9672 28.979 37.8722 29.0526 37.7924C29.1261 37.7126 29.2162 37.6499 29.3166 37.6088C29.4171 37.5676 29.5253 37.549 29.6337 37.5543C30.1015 37.5543 30.3255 37.8508 30.3255 38.3845V40.1338H31.014ZM34.8686 38.5624V36.9909H34.1767V37.3731C34.0605 37.2231 33.9102 37.1031 33.7384 37.0229C33.5665 36.9426 33.3779 36.9046 33.1884 36.9118C32.7515 36.9118 32.3325 37.0854 32.0236 37.3943C31.7147 37.7032 31.5412 38.1222 31.5412 38.5591C31.5412 38.9959 31.7147 39.4149 32.0236 39.7238C32.3325 40.0327 32.7515 40.2063 33.1884 40.2063C33.3779 40.2136 33.5665 40.1755 33.7384 40.0953C33.9102 40.0151 34.0605 39.895 34.1767 39.7451V40.1272H34.862L34.8686 38.5624ZM32.3219 38.5624C32.3329 38.377 32.3978 38.1988 32.5087 38.0499C32.6196 37.9009 32.7716 37.7876 32.9461 37.724C33.1205 37.6603 33.3098 37.6491 33.4905 37.6916C33.6713 37.7342 33.8357 37.8287 33.9634 37.9635C34.0912 38.0982 34.1767 38.2675 34.2095 38.4503C34.2423 38.633 34.2209 38.8214 34.148 38.9922C34.0751 39.163 33.9538 39.3088 33.7991 39.4115C33.6444 39.5143 33.463 39.5695 33.2773 39.5705C33.1462 39.5735 33.0159 39.5492 32.8947 39.499C32.7735 39.4488 32.6641 39.3739 32.5736 39.279C32.483 39.1841 32.4133 39.0713 32.3688 38.9479C32.3244 38.8245 32.3061 38.6932 32.3154 38.5624H32.3219ZM49.5091 36.9151C49.7347 36.9146 49.9583 36.957 50.168 37.0403C50.3681 37.1205 50.5505 37.2391 50.705 37.3895C50.8574 37.5386 50.9784 37.7167 51.0608 37.9134C51.2329 38.3358 51.2329 38.8087 51.0608 39.2311C50.9785 39.4278 50.8575 39.6059 50.705 39.7549C50.5505 39.9054 50.3681 40.024 50.168 40.1042C49.7336 40.273 49.2517 40.273 48.8173 40.1042C48.6181 40.0241 48.4367 39.9054 48.2836 39.7549C48.1326 39.6054 48.0128 39.4273 47.931 39.2311C47.7593 38.8087 47.7593 38.3358 47.931 37.9134C48.0128 37.7172 48.1326 37.5391 48.2836 37.3895C48.4367 37.2391 48.6181 37.1204 48.8173 37.0403C49.0345 36.9503 49.2674 36.9044 49.5025 36.9053L49.5091 36.9151ZM49.5091 37.574C49.3749 37.5722 49.2417 37.5968 49.1171 37.6465C48.9996 37.6936 48.8931 37.7642 48.8041 37.8541C48.7132 37.9486 48.6426 38.0607 48.5965 38.1835C48.4959 38.4465 48.4959 38.7375 48.5965 39.0005C48.6425 39.1233 48.7132 39.2355 48.8041 39.33C48.8931 39.4199 48.9996 39.4905 49.1171 39.5375C49.368 39.6358 49.6469 39.6358 49.8978 39.5375C50.0209 39.492 50.1331 39.4213 50.2273 39.33C50.3183 39.2356 50.389 39.1234 50.4348 39.0005C50.5355 38.7375 50.5355 38.4465 50.4348 38.1835C50.389 38.0606 50.3183 37.9485 50.2273 37.8541C50.1331 37.7627 50.0209 37.692 49.8978 37.6465C49.7736 37.5896 49.6391 37.5582 49.5025 37.5543L49.5091 37.574ZM38.5913 38.5624C38.5913 37.574 37.9785 36.9151 37.0989 36.9151C36.662 36.9213 36.2455 37.1007 35.9409 37.4139C35.6363 37.7271 35.4686 38.1486 35.4747 38.5854C35.4808 39.0223 35.6603 39.4389 35.9735 39.7434C36.2867 40.048 36.7081 40.2157 37.145 40.2096C37.614 40.2256 38.0725 40.0685 38.4331 39.7681L38.1037 39.2608C37.8436 39.4694 37.5213 39.5853 37.1878 39.5902C36.9613 39.6097 36.7362 39.5401 36.5602 39.3961C36.3842 39.2521 36.2714 39.0452 36.2456 38.8193H38.5814C38.5913 38.737 38.5913 38.6546 38.5913 38.5624ZM36.2489 38.2856C36.2617 38.0765 36.3549 37.8804 36.5091 37.7385C36.6632 37.5966 36.8664 37.52 37.0758 37.5246C37.1784 37.5224 37.2803 37.5405 37.3759 37.5777C37.4715 37.6149 37.5588 37.6706 37.6328 37.7416C37.7068 37.8126 37.7662 37.8974 37.8074 37.9913C37.8486 38.0853 37.8709 38.1864 37.8731 38.2889L36.2489 38.2856ZM41.4739 37.7915C41.1731 37.6182 40.8327 37.5252 40.4856 37.5213C40.11 37.5213 39.886 37.6597 39.886 37.8903C39.886 38.1209 40.1232 38.1604 40.4197 38.2L40.7491 38.2461C41.4344 38.3449 41.8495 38.6348 41.8495 39.1883C41.8495 39.7418 41.3224 40.2162 40.4164 40.2162C39.9308 40.2291 39.4539 40.0859 39.0558 39.8077L39.3852 39.274C39.6876 39.4983 40.0566 39.6143 40.4329 39.6034C40.9007 39.6034 41.1511 39.465 41.1511 39.2213C41.1511 39.0434 40.9732 38.9445 40.5976 38.8918L40.2682 38.8457C39.5631 38.7469 39.181 38.4306 39.181 37.9166C39.181 37.2907 39.6949 36.9086 40.4988 36.9086C40.9487 36.8935 41.3934 37.0078 41.7803 37.238L41.4739 37.7915ZM44.7684 37.6136H43.6516V39.0335C43.6516 39.3629 43.7636 39.5606 44.1062 39.5606C44.32 39.5535 44.5286 39.4923 44.7124 39.3827L44.91 39.9691C44.6532 40.1294 44.3563 40.2139 44.0535 40.2129C43.243 40.2129 42.9597 39.778 42.9597 39.0466V37.6136H42.3206V36.9876H42.9597V36.0322H43.6516V36.9876H44.7684V37.6136ZM47.1371 36.9086C47.3033 36.9092 47.4682 36.9382 47.6247 36.9942L47.4138 37.6531C47.2777 37.5988 47.1321 37.5719 46.9855 37.574C46.5375 37.574 46.3267 37.8639 46.3267 38.3845V40.147H45.6414V37.0008H46.3201V37.383C46.4042 37.2385 46.5257 37.1194 46.6718 37.0382C46.8179 36.9571 46.9832 36.9168 47.1503 36.9217L47.1371 36.9086ZM51.8745 39.6759C51.9173 39.6754 51.9599 39.6832 51.9997 39.699C52.0375 39.7144 52.0722 39.7367 52.1018 39.7648C52.1308 39.7932 52.1542 39.8268 52.171 39.8637C52.1877 39.9021 52.1963 39.9436 52.1963 39.9856C52.1963 40.0275 52.1877 40.069 52.171 40.1075C52.1542 40.1444 52.1308 40.1779 52.1018 40.2063C52.0722 40.2344 52.0375 40.2567 51.9997 40.2722C51.9603 40.2896 51.9176 40.2986 51.8745 40.2985C51.8121 40.2981 51.751 40.2799 51.6985 40.246C51.646 40.2122 51.6042 40.1641 51.578 40.1075C51.5615 40.0689 51.553 40.0275 51.553 39.9856C51.553 39.9437 51.5615 39.9022 51.578 39.8637C51.5948 39.8268 51.6182 39.7932 51.6472 39.7648C51.6768 39.7367 51.7115 39.7144 51.7493 39.699C51.784 39.6852 51.8207 39.6774 51.858 39.6759H51.8745ZM51.8745 40.2326C51.9074 40.2328 51.9399 40.2261 51.97 40.2129C51.9984 40.2002 52.0241 40.1823 52.0458 40.1602C52.0738 40.132 52.0944 40.0975 52.106 40.0596C52.1176 40.0216 52.1197 39.9815 52.1122 39.9425C52.1048 39.9036 52.0879 39.867 52.0631 39.8361C52.0384 39.8051 52.0064 39.7806 51.97 39.7648C51.9399 39.7517 51.9074 39.745 51.8745 39.7451C51.8417 39.7452 51.8092 39.752 51.779 39.7648C51.7494 39.777 51.7225 39.7949 51.6999 39.8175C51.6587 39.8625 51.6358 39.9213 51.6358 39.9823C51.6358 40.0433 51.6587 40.102 51.6999 40.147C51.7227 40.1701 51.7499 40.1884 51.7799 40.2009C51.8099 40.2133 51.842 40.2196 51.8745 40.2195V40.2326ZM51.8943 39.8406C51.925 39.8391 51.9553 39.8484 51.9799 39.867C51.99 39.8753 51.998 39.8859 52.0031 39.898C52.0083 39.91 52.0105 39.9231 52.0096 39.9362C52.0101 39.9471 52.0082 39.958 52.0043 39.9682C52.0003 39.9784 51.9943 39.9877 51.9865 39.9954C51.9674 40.0128 51.9431 40.0232 51.9173 40.0251L52.0129 40.1338H51.9371L51.8481 40.0251H51.8185V40.1338H51.7559V39.8307L51.8943 39.8406ZM51.8218 39.8966V39.9757H51.8943C51.9072 39.9795 51.9209 39.9795 51.9338 39.9757C51.9361 39.9711 51.9373 39.966 51.9373 39.9609C51.9373 39.9557 51.9361 39.9506 51.9338 39.946C51.9361 39.9414 51.9373 39.9364 51.9373 39.9312C51.9373 39.9261 51.9361 39.921 51.9338 39.9164C51.9209 39.9125 51.9072 39.9125 51.8943 39.9164L51.8218 39.8966Z" fill="white"/>
<path fill-rule="evenodd" clip-rule="evenodd" d="M38.5913 31.6335C41.3509 29.4619 43.123 26.0918 43.123 22.3078C43.123 18.5238 41.3509 15.1537 38.5913 12.9821C40.6085 11.3947 43.1535 10.4478 45.9196 10.4478C52.4698 10.4478 57.7797 15.7577 57.7797 22.3078C57.7797 28.858 52.4698 34.1679 45.9196 34.1679C43.1535 34.1679 40.6085 33.2209 38.5913 31.6335ZM38.5913 31.6335C36.574 33.2209 34.029 34.1679 31.2629 34.1679C24.7128 34.1679 19.4028 28.858 19.4028 22.3078C19.4028 15.7577 24.7128 10.4478 31.2629 10.4478C34.029 10.4478 36.574 11.3947 38.5913 12.9821C35.8317 15.1537 34.0596 18.5238 34.0596 22.3078C34.0596 26.0918 35.8317 29.4619 38.5913 31.6335Z" fill="white"/>
<path d="M38.5913 31.6333C41.3509 29.4617 43.123 26.0916 43.123 22.3076C43.123 18.5236 41.3509 15.1535 38.5913 12.9819C35.8317 15.1535 34.0596 18.5236 34.0596 22.3076C34.0596 26.0916 35.8317 29.4617 38.5913 31.6333Z" fill="#EBEFF6"/>
</svg>
