<svg width="78" height="50" viewBox="0 0 78 50" fill="none" xmlns="http://www.w3.org/2000/svg">
<rect width="77.6119" height="50" rx="12" fill="#646464"/>
<path d="M38.3315 16.8516L34.7115 33.7737H30.3341L33.9547 16.8516H38.3315ZM56.749 27.7782L59.0537 21.4234L60.3798 27.7782H56.749ZM61.6331 33.7737H65.6822L62.1489 16.8516H58.4115C57.5717 16.8516 56.8631 17.34 56.5476 18.0931L49.9802 33.7737H54.5772L55.4898 31.2468H61.1061L61.6331 33.7737ZM50.2084 28.2485C50.2271 23.7822 44.0319 23.5363 44.0747 21.5412C44.0876 20.9333 44.6666 20.2885 45.9311 20.123C46.5593 20.041 48.2866 19.9784 50.248 20.8808L51.016 17.2924C49.9625 16.9099 48.6069 16.542 46.9209 16.542C42.5943 16.542 39.549 18.8424 39.5232 22.1363C39.4959 24.5722 41.6972 25.9315 43.356 26.7413C45.0613 27.571 45.6344 28.1023 45.6269 28.8441C45.6156 29.9801 44.2665 30.4803 43.0078 30.5001C40.8065 30.5349 39.5291 29.9062 38.511 29.4316L37.7178 33.1395C38.7402 33.6093 40.6282 34.0174 42.5868 34.0383C47.1849 34.0383 50.1934 31.7663 50.2084 28.2485ZM32.0763 16.8516L24.984 33.7737H20.3559L16.866 20.2687C16.6539 19.4369 16.4697 19.1327 15.8253 18.7819C14.774 18.2114 13.036 17.6753 11.5068 17.3432L11.6113 16.8516H19.0598C20.0089 16.8516 20.8631 17.4836 21.0784 18.5767L22.922 28.3695L27.4772 16.8516H32.0763Z" fill="#F5F5F6"/>
</svg>
