<svg width="70" height="70" viewBox="0 0 70 70" fill="none" xmlns="http://www.w3.org/2000/svg">
<circle cx="35" cy="35" r="35" fill="#E7F6F8"/>
<path d="M26.1091 48.4393H29.7353C29.8951 48.4393 29.9904 48.2612 29.9018 48.1283L26.1091 42.4393C26.1091 42.4393 25.6091 36.4393 26.1091 36.4393C32.1091 36.4393 38.6091 32.4395 39.6091 29.4393C39.9423 28.4395 39.6091 31.9395 44.6091 35.4393C45.5251 36.0805 45.1091 40.9395 44.6091 43.9393C44.4423 44.9395 42.6091 47.9395 41.6091 48.4393C40.609 48.9391 38.1091 49.9395 38.1091 49.9395L41.6091 48.9393C41.6091 48.9393 44.1075 48.5205 45.6091 47.9393C47.6091 47.1651 51.1091 45.9395 51.6091 43.9393C52.2273 41.466 51.7951 37.4279 51.6091 35.9393C51.1091 31.9395 49.9682 28.5677 47.6091 24.4393C45.6091 20.9394 43.4385 19.2049 39.6091 18.4393C37.1091 17.9394 34.1091 17.7736 31.6091 18.4393C29.109 19.105 25.1804 20.9486 22.6091 24.4393C19.7139 28.3696 19.5809 32.0806 19.1091 36.9393C18.8637 39.4658 19.1091 40.4392 19.109 43.4392C19.109 46.4392 26.1091 48.4393 26.1091 48.4393Z" fill="#17A2B8" stroke="#17A2B8"/>
<circle cx="37.1091" cy="50.4395" r="2" fill="#17A2B8"/>
</svg>
