<svg width="70" height="70" viewBox="0 0 70 70" fill="none" xmlns="http://www.w3.org/2000/svg">
<circle cx="35" cy="35" r="35" fill="#E6F8F3"/>
<path d="M23 26.5H24V46C24 47.1046 24.8954 48 26 48H40.5V49C40.5 50.1046 39.6046 51 38.5 51H23C21.8954 51 21 50.1046 21 49V28.5C21 27.3954 21.8954 26.5 23 26.5Z" fill="#0CBC87" stroke="#0CBC87"/>
<path d="M27 20H37V29C37 29.5523 37.4477 30 38 30H47V45.168C47 45.7203 46.5523 46.168 46 46.168H27C26.4477 46.168 26 45.7203 26 45.168V21C26 20.4477 26.4477 20 27 20Z" fill="#0CBC87" stroke="#0CBC87"/>
<path d="M31 37V35H42V37H31Z" fill="#E6F8F3"/>
<path d="M31 41.5V39.5H42V41.5H31Z" fill="#E6F8F3"/>
<path d="M31 37V35H42V37H31Z" stroke="#0CBC87"/>
<path d="M31 41.5V39.5H42V41.5H31Z" stroke="#0CBC87"/>
<path d="M39.5 26.5V20.0241C39.5 20.0152 39.5108 20.0108 39.5171 20.0171L46.9829 27.4829C46.9892 27.4892 46.9848 27.5 46.9759 27.5H40.5C39.9477 27.5 39.5 27.0523 39.5 26.5Z" fill="#0CBC87" stroke="#0CBC87"/>
</svg>
