<svg width="70" height="70" viewBox="0 0 70 70" fill="none" xmlns="http://www.w3.org/2000/svg">
<circle cx="35" cy="35" r="35" fill="#FFF2E7"/>
<path d="M21.754 23H51.6706C52.6466 23 53.5206 23.6475 53.8177 24.5892L56.0471 31.5546C56.2641 32.2233 56.3662 32.9239 56.3662 33.6359V43.5493H49.5551C49.4214 45.715 47.6636 47.4298 45.4966 47.4298C43.3292 47.4298 41.5712 45.715 41.4381 43.5493H30.4657C30.3326 45.715 28.5645 47.4298 26.4072 47.4298C24.2402 47.4298 22.4824 45.715 22.3504 43.5493H16.0001V28.8569C16.0001 25.6246 18.5785 23 21.754 23ZM43.7705 43.5493C43.8928 44.4073 44.6232 45.0668 45.4966 45.0668C46.3692 45.0668 47.1094 44.4073 47.232 43.5493C47.2428 43.4656 47.2533 43.3819 47.2533 43.2883C47.2533 43.006 47.192 42.7443 47.0576 42.5039C46.7907 41.9075 46.1846 41.4997 45.4967 41.4997C44.808 41.4997 44.2124 41.9075 43.935 42.5039C43.8107 42.7443 43.7497 43.006 43.7497 43.2883C43.7496 43.3819 43.7608 43.4656 43.7705 43.5493ZM24.6717 43.5493C24.7943 44.4073 25.5346 45.0668 26.4072 45.0668C27.2801 45.0668 28.0109 44.4073 28.1331 43.5493C28.1429 43.4656 28.154 43.3819 28.154 43.2883C28.154 43.006 28.0931 42.7443 27.9688 42.5039C27.6915 41.9075 27.0954 41.4997 26.4072 41.4997C25.7191 41.4997 25.1131 41.9075 24.8462 42.5039C24.7117 42.7443 24.6505 43.006 24.6505 43.2883C24.6505 43.3819 24.6616 43.4656 24.6717 43.5493ZM17.0273 42.504H22.4099C22.77 40.5893 24.4251 39.1483 26.4072 39.1483C28.3798 39.1483 30.0445 40.5893 30.4044 42.504H41.4994C41.8592 40.5893 43.5139 39.1483 45.4966 39.1483C47.4787 39.1483 49.1333 40.5893 49.4935 42.504H55.339V33.6359C55.339 33.0395 55.2463 32.4439 55.0717 31.868L52.8423 24.9126C52.6783 24.4013 52.2042 24.0453 51.6706 24.0453H21.754C20.4487 24.0453 19.2681 24.5892 18.4151 25.4572C17.5516 26.3252 17.0273 27.528 17.0273 28.8569V42.504Z" fill="#FD7E14"/>
<path d="M22.2946 26.104H25.4463C25.7682 26.104 26.0288 26.37 26.0288 26.6969V31.7553C26.0288 32.0808 25.7682 32.3482 25.4463 32.3482H20.0766C19.7554 32.3482 19.4942 32.0808 19.4942 31.7553V28.9549C19.4942 27.384 20.7507 26.104 22.2946 26.104Z" fill="#FD7E14"/>
<path d="M49.0524 26.104H50.245C50.4969 26.104 50.7219 26.27 50.8 26.5139L52.695 32.4531C52.8148 32.824 52.874 33.2098 52.874 33.5984V36.6393C52.874 36.9655 52.6127 37.2308 52.2909 37.2308H49.0524C48.7312 37.2308 48.4699 36.9654 48.4699 36.6393V26.6969C48.4699 26.37 48.7312 26.104 49.0524 26.104Z" fill="#FD7E14"/>
<path d="M39.1428 26.104H45.8477C46.0079 26.104 46.1382 26.238 46.1382 26.4019V32.0511C46.1382 32.2156 46.0079 32.3482 45.8477 32.3482H39.1428C38.9809 32.3482 38.8505 32.2156 38.8505 32.0511V26.4019C38.8505 26.238 38.9809 26.104 39.1428 26.104Z" fill="#FD7E14"/>
<path d="M29.1488 26.104H36.1038C36.2644 26.104 36.395 26.238 36.395 26.4019V32.0511C36.395 32.2156 36.2644 32.3482 36.1038 32.3482H29.1488C28.9886 32.3482 28.8583 32.2156 28.8583 32.0511V26.4019C28.8583 26.238 28.9886 26.104 29.1488 26.104Z" fill="#FD7E14"/>
</svg>
