<svg width="14" height="14" viewBox="0 0 14 14" fill="none" xmlns="http://www.w3.org/2000/svg">
<mask id="path-1-inside-1_311_400" fill="white">
<path d="M11.5 5.75C11.5 8.92564 8.92564 11.5 5.75 11.5C2.57436 11.5 0 8.92564 0 5.75C0 2.57436 2.57436 0 5.75 0C8.92564 0 11.5 2.57436 11.5 5.75ZM1.6094 5.75C1.6094 8.03679 3.46321 9.8906 5.75 9.8906C8.03679 9.8906 9.8906 8.03679 9.8906 5.75C9.8906 3.46321 8.03679 1.6094 5.75 1.6094C3.46321 1.6094 1.6094 3.46321 1.6094 5.75Z"/>
</mask>
<path d="M11.5 5.75C11.5 8.92564 8.92564 11.5 5.75 11.5C2.57436 11.5 0 8.92564 0 5.75C0 2.57436 2.57436 0 5.75 0C8.92564 0 11.5 2.57436 11.5 5.75ZM1.6094 5.75C1.6094 8.03679 3.46321 9.8906 5.75 9.8906C8.03679 9.8906 9.8906 8.03679 9.8906 5.75C9.8906 3.46321 8.03679 1.6094 5.75 1.6094C3.46321 1.6094 1.6094 3.46321 1.6094 5.75Z" fill="white" stroke="white" stroke-width="2" mask="url(#path-1-inside-1_311_400)"/>
<path d="M9.75 9.5L14 14" stroke="white" stroke-width="3" stroke-linecap="round"/>
</svg>
