<svg width="70" height="70" viewBox="0 0 70 70" fill="none" xmlns="http://www.w3.org/2000/svg">
<circle cx="35" cy="35" r="35" fill="#FBE9EB"/>
<path d="M39.7144 53.457L37.7539 53.9471C37.671 53.9678 37.602 53.8818 37.6402 53.8054L38.6287 51.8284L48.4001 42.5999L49.4858 43.6856L39.7144 53.457Z" fill="#D6293E" stroke="#D6293E"/>
<path d="M50.5713 42.6645L49.4856 41.5787C49.4856 41.5787 49.9717 40.7362 50.5713 41.036C50.8395 41.1701 50.9801 41.3105 51.1142 41.5787C51.414 42.1783 50.5713 42.6645 50.5713 42.6645Z" fill="#D6293E" stroke="#D6293E"/>
<path d="M40.7066 47.4865C39.0306 47.4865 23.2763 47.4864 19.6796 47.4865C18.594 47.4865 17.7848 46.1033 18.0511 44.7722C18.594 42.058 23.4286 35.5428 28.8571 35.5436C29.9429 35.5437 36.4571 35.543 37.0511 35.5436C41.0031 35.5478 46.8226 40.429 46.2796 42.0579C46.0469 42.7561 41.2689 47.1069 40.8766 47.4633C40.8583 47.48 40.846 47.4865 40.8212 47.4865H40.7066Z" fill="#D6293E" stroke="#D6293E"/>
<ellipse cx="34.2858" cy="23.6" rx="7.6" ry="7.6" fill="#D6293E"/>
</svg>
