<svg width="290" height="250" viewBox="0 0 290 250" fill="none" xmlns="http://www.w3.org/2000/svg">
<circle cx="85" cy="245" r="5" fill="#CBE8FC"/>
<circle cx="85" cy="85" r="5" fill="#CBE8FC"/>
<circle cx="85" cy="165" r="5" fill="#CBE8FC"/>
<circle cx="85" cy="5" r="5" fill="#CBE8FC"/>
<circle cx="85" cy="205" r="5" fill="#CBE8FC"/>
<circle cx="85" cy="45" r="5" fill="#CBE8FC"/>
<circle cx="85" cy="125" r="5" fill="#CBE8FC"/>
<circle cx="205" cy="245" r="5" fill="#CBE8FC"/>
<circle cx="205" cy="85" r="5" fill="#CBE8FC"/>
<circle cx="205" cy="165" r="5" fill="#CBE8FC"/>
<circle cx="205" cy="5" r="5" fill="#CBE8FC"/>
<circle cx="205" cy="205" r="5" fill="#CBE8FC"/>
<circle cx="205" cy="45" r="5" fill="#CBE8FC"/>
<circle cx="205" cy="125" r="5" fill="#CBE8FC"/>
<circle cx="5" cy="245" r="5" fill="#CBE8FC"/>
<circle cx="5" cy="85" r="5" fill="#CBE8FC"/>
<circle cx="5" cy="165" r="5" fill="#CBE8FC"/>
<circle cx="5" cy="5" r="5" fill="#CBE8FC"/>
<circle cx="5" cy="205" r="5" fill="#CBE8FC"/>
<circle cx="5" cy="45" r="5" fill="#CBE8FC"/>
<circle cx="5" cy="125" r="5" fill="#CBE8FC"/>
<circle cx="125" cy="245" r="5" fill="#CBE8FC"/>
<circle cx="125" cy="85" r="5" fill="#CBE8FC"/>
<circle cx="125" cy="165" r="5" fill="#CBE8FC"/>
<circle cx="125" cy="5" r="5" fill="#CBE8FC"/>
<circle cx="125" cy="205" r="5" fill="#CBE8FC"/>
<circle cx="125" cy="45" r="5" fill="#CBE8FC"/>
<circle cx="125" cy="125" r="5" fill="#CBE8FC"/>
<circle cx="245" cy="245" r="5" fill="#CBE8FC"/>
<circle cx="245" cy="85" r="5" fill="#CBE8FC"/>
<circle cx="245" cy="165" r="5" fill="#CBE8FC"/>
<circle cx="245" cy="5" r="5" fill="#CBE8FC"/>
<circle cx="245" cy="205" r="5" fill="#CBE8FC"/>
<circle cx="245" cy="45" r="5" fill="#CBE8FC"/>
<circle cx="245" cy="125" r="5" fill="#CBE8FC"/>
<circle cx="45" cy="245" r="5" fill="#CBE8FC"/>
<circle cx="45" cy="85" r="5" fill="#CBE8FC"/>
<circle cx="45" cy="165" r="5" fill="#CBE8FC"/>
<circle cx="45" cy="5" r="5" fill="#CBE8FC"/>
<circle cx="45" cy="205" r="5" fill="#CBE8FC"/>
<circle cx="45" cy="45" r="5" fill="#CBE8FC"/>
<circle cx="45" cy="125" r="5" fill="#CBE8FC"/>
<circle cx="165" cy="245" r="5" fill="#CBE8FC"/>
<circle cx="165" cy="85" r="5" fill="#CBE8FC"/>
<circle cx="165" cy="165" r="5" fill="#CBE8FC"/>
<circle cx="165" cy="5" r="5" fill="#CBE8FC"/>
<circle cx="165" cy="205" r="5" fill="#CBE8FC"/>
<circle cx="165" cy="45" r="5" fill="#CBE8FC"/>
<circle cx="165" cy="125" r="5" fill="#CBE8FC"/>
<circle cx="285" cy="245" r="5" fill="#CBE8FC"/>
<circle cx="285" cy="85" r="5" fill="#CBE8FC"/>
<circle cx="285" cy="165" r="5" fill="#CBE8FC"/>
<circle cx="285" cy="5" r="5" fill="#CBE8FC"/>
<circle cx="285" cy="205" r="5" fill="#CBE8FC"/>
<circle cx="285" cy="45" r="5" fill="#CBE8FC"/>
<circle cx="285" cy="125" r="5" fill="#CBE8FC"/>
</svg>
